<svg id="svg21277" xmlns="http://www.w3.org/2000/svg" viewBox="0 0 232.26 156.2">
  <path id="path20248" d="M10.7,170c.37-.35.74-.7,1.11-1" transform="translate(-10.35 -14.13)" fill="#d7d8d6" stroke="#706f6a" stroke-miterlimit="10"/>
  <path id="path20350" d="M23.75,109C35,141.81,52.2,147,72,147.64c18.81.6,30-2.74,35.07-8.72,7-8.2,9.8-48.33,10.45-60.79S111,58.24,97.49,67c-13.8,9-9.72,30.29-8.32,43.08,0,0-12.68-12-30.26-12.81C28.18,95.88,23.75,109,23.75,109ZM50.61,43.38s-19,1.67-29.83,22.19C13,80.3,17.47,94.48,23.6,107.85m92-41.27c6.37-1.14,10.9-.85,14.92,1,10.48,4.82,12.16,20.17,6.82,24.86-7.7,6.75-20.74,10.22-20.74,10.22m-42.06-3S69.06,94.16,78.21,83A37.54,37.54,0,0,1,89.78,73.9m36.61-9.69c2.32-7.21-2.7-23.66-16.82-23.33C95.72,41.2,69,52.44,62.73,65.13S67.59,85,75.12,86.5M64,62.59c-6.46,1-17-.59-14.85-14S69.35,22.83,87,17.81c14.94-4.25,22.68,12.32,18.38,22.7m28.39,54.05s77.4-19.06,92.2-17c15.64,2.15,19.66,24.85,2.6,30.11s-118,23.22-118,23.22" transform="translate(-10.35 -14.13)" fill="#706f6a" fill-opacity="0" stroke="#a9a9a6" stroke-linecap="round" stroke-linejoin="round" stroke-width="6"/>
</svg>
