<svg id="Layer_1" data-name="Layer 1" xmlns="http://www.w3.org/2000/svg" viewBox="0 0 185 600">
  <path d="M.92,54.19h0Z" fill="none"/>
  <path d="M1.48,24.68c4.82,0,8.75,4.11,9,9.29H66.07V81.56l6.36,3.59,4.86,1L84.1,90.2,75.21,24.68l-70-12H1.32v12Z" fill="#f200ff" stroke="#000" stroke-width="0.5"/>
  <path d="M1.36,165.13v10.31H32.7C30.65,164.56,17.54,165.08,1.36,165.13Z" fill="#212beb" stroke="#000"/>
  <path d="M1.36,165.09c17.48.06,31.4.68,31.62-13.15H1.36Z" fill="#212beb" stroke="#000"/>
  <path d="M1.34,72.88l0,79.06h54.8V72.88H1.34Zm27,9.37c12.91,0,23.37,11.14,23.37,24.88S41.22,132,28.31,132,4.93,120.87,4.93,107.13,15.4,82.25,28.31,82.25Z" fill="#d0dd27" stroke="#000"/>
  <path d="M28.31,132c12.91,0,23.37-11.14,23.37-24.88S41.22,82.25,28.31,82.25,4.93,93.39,4.93,107.13,15.4,132,28.31,132Zm0-43c9.18,0,16.63,8.1,16.63,18.08s-7.45,18.08-16.63,18.08-16.63-8.09-16.63-18.08S19.12,89.05,28.31,89.05Z" fill="#5a5a5a" stroke="#000" stroke-width="3"/>
  <path d="M28.31,125.21c9.18,0,16.63-8.09,16.63-18.08S37.49,89.05,28.31,89.05s-16.63,8.1-16.63,18.08S19.12,125.21,28.31,125.21Zm3.45-27.52c2.61,0,4.73,2.58,4.73,5.75s-2.12,5.76-4.73,5.76S27,106.62,27,103.44,29.14,97.69,31.76,97.69Z" fill="#29562a" stroke="#000"/>
  <ellipse cx="31.76" cy="103.44" rx="4.73" ry="5.75" fill="#a92223"/>
  <polygon points="0.93 82.76 4.93 82.76 4.93 54.19 1.07 54.19 0.92 54.19 0.93 82.76" fill="#00b9d4" stroke="#000"/>
  <rect x="0.93" y="82.76" width="4" fill="#7d7d7d" stroke="#000"/>
  <path d="M1.33,34V44.3h.15c5,0,9-4.39,9-9.81,0-.18,0-.36,0-.53H1.33Z" fill="red" stroke="#000" stroke-width="4"/>
  <path d="M1.48,24.68H1.33V34h9.15C10.23,28.79,6.3,24.68,1.48,24.68Z" fill="red" stroke="#000" stroke-width="4"/>
  <polygon points="47.97 296.93 48.17 296.66 47.55 296.52 51.71 309.57 51.54 309.78 52.1 309.91 47.97 296.93" fill="#afafaf" stroke="#000"/>
  <polygon points="68.44 289.81 68.65 289.54 68.03 289.4 72.18 302.45 72.02 302.66 72.57 302.79 68.44 289.81" fill="#afafaf" stroke="#000"/>
  <polygon points="11.34 289.78 11.55 289.51 10.93 289.37 15.08 302.42 14.91 302.63 15.47 302.76 11.34 289.78" fill="#afafaf" stroke="#000"/>
  <path d="M51.42,210.49,47.69,212l11,28a.33.33,0,0,0,.14,0l-1.17-20.52Z" fill="#afafaf" stroke="#000"/>
  <path d="M101.4,175.44H32.7a16.58,16.58,0,0,1,.28,2.85H1.37v15.47h9.25v47H1.38v25l1.84-2.39,12.11,2.76,4.16,13.07-.21.27,12.11,2.75,3.77,11.86.27-.34.63.14-4.16-13.05,8-10.31L52,273.29l4.16,13.07-.21.27.62.14-4.16-13,7.95-10.31,12.11,2.76,4.16,13.07-.21.27,12.11,2.76,4.16,13.06-8,10.31-.63-.15,4.14,13-8,10.31L68.16,326,64,313l.17-.21-.56-.13,4.13,13L59.79,335.9l-12.1-2.76-4.16-13.06.16-.22-12-2.75-3.78-11.85-.26.34-.63-.14,4.14,13-7.95,10.3L11.06,326,6.9,312.92l.17-.22-.56-.12,4.13,13-8,10.3-1.28-.29v65.77l1-47.53-1,47.53,0,75.47,51.38-1.38,48.58-145V175.44ZM59,239.63c0,.21-.13.33-.25.37l0,.43-.16-.42c-2.5-.29-15.75-21.84-23.08-23-7-1.08,2.35-14.1,5-19.66l-5,19.66,12.13-5-6.27-16,10,14.5,30.06-12.42-2.58-.39-37.6-2-.06-.15c0,.05,0,.1,0,.14a7.23,7.23,0,0,1-.63,1.71l.55-2.17.12.32c1.3-3.21,27.17.54,37.66,2.15l3.14.16-.56.23C89.42,199.29,59.69,235.84,59,239.63ZM12.11,353.81l-6,104.74Zm9.66,0L12,458.55Zm9.66,0L17.85,458.55Zm9.66,0L23.74,458.55Zm9.66,0L29.63,458.55Zm9.66,0L35.52,458.55Zm9.66,0L41.41,458.55ZM47.3,458.55,79.73,353.81Z" fill="#d0dd27" stroke="#000"/>
  <path d="M32.7,175.44H1.37v2.85H33A16.58,16.58,0,0,0,32.7,175.44Z" fill="#afafaf" stroke="#000"/>
  <path d="M41.24,195.53l-.12-.32-.55,2.17a7.23,7.23,0,0,0,.63-1.71s0-.09,0-.14Z" fill="#ff787d" stroke="lime" stroke-width="4"/>
  <path d="M78.9,197.68l2.58.39.56-.23Z" fill="#ff787d" stroke="lime" stroke-width="4"/>
  <path d="M58.8,240.43l0-.43a.33.33,0,0,1-.14,0Z" fill="#ff787d" stroke="lime" stroke-width="4"/>
  <polygon points="41.42 195.99 47.69 212.03 51.42 210.49 41.42 195.99" fill="#ff787d" stroke="lime" stroke-width="4"/>
  <path d="M41.24,195.53h0l.06.15,37.6,2C68.41,196.07,42.54,192.32,41.24,195.53Z" fill="#ff787d" stroke="lime" stroke-width="4"/>
  <path d="M35.56,217l5-19.66C37.91,202.94,28.51,216,35.56,217Z" fill="#ff787d" stroke="lime" stroke-width="4"/>
  <path d="M81.48,198.07,51.42,210.49l6.19,9L58.78,240c.12,0,.21-.16.25-.37C59.69,235.84,89.42,199.29,81.48,198.07Z" fill="#ff787d" stroke="lime" stroke-width="4"/>
  <path d="M35.56,217c7.33,1.13,20.58,22.68,23.08,23l-11-28Z" fill="#ff787d" stroke="lime" stroke-width="4"/>
  <path d="M10.62,193.76H1.37v6.17a10.14,10.14,0,0,1,3.33,7.61,10.17,10.17,0,0,1-3.32,7.6v25.59h9.24Z" fill="#7d7d7d" stroke="#000"/>
  <path d="M4.7,207.54a12.07,12.07,0,0,0-2.44-7.61v15.21A12.06,12.06,0,0,0,4.7,207.54Z" fill="red" stroke="#000" stroke-width="4"/>
  <polygon points="48.17 296.66 47.97 296.93 52.1 309.91 63.58 312.53 63.61 312.61 64.17 312.74 71.95 302.65 72.02 302.66 72.18 302.45 68.03 289.4 56.54 286.78 56.54 286.77 55.92 286.63 48.18 296.66 48.17 296.66" fill="#afafff" stroke="#000"/>
  <polygon points="27.88 305.26 31.65 317.11 43.7 319.86 51.48 309.77 51.54 309.78 51.71 309.57 47.55 296.52 36.07 293.9 36.07 293.89 35.44 293.75 35.17 294.09 35.56 295.3 27.88 305.26" fill="#afafff" stroke="#000"/>
  <polygon points="47.55 296.52 48.17 296.66 55.91 286.62 55.92 286.63 56.13 286.36 51.97 273.29 39.86 270.53 31.91 280.84 36.07 293.89 47.55 296.5 47.55 296.52" fill="#afafff" stroke="#000"/>
  <rect x="45.71" y="291.64" width="12.68" height="0.01" transform="translate(-243.93 278.83) rotate(-77.4)" fill="#afafff" stroke="#000"/>
  <polygon points="47.55 296.52 47.55 296.5 36.07 293.89 36.07 293.9 47.55 296.52" fill="#afafff" stroke="#000"/>
  <polygon points="68.03 289.4 68.65 289.54 76.39 279.51 76.39 279.51 76.6 279.24 72.44 266.17 60.33 263.41 52.38 273.72 56.54 286.77 68.02 289.38 68.03 289.4" fill="#afafff" stroke="#000"/>
  <polygon points="68.03 289.4 68.02 289.38 56.54 286.77 56.54 286.78 68.03 289.4" fill="#afafff" stroke="#000"/>
  <polygon points="68.65 289.54 68.44 289.81 72.57 302.79 84.06 305.41 84.08 305.49 84.71 305.64 92.66 295.33 88.5 282.27 76.39 279.51 68.65 289.54 68.65 289.54" fill="#afafff" stroke="#000"/>
  <rect x="66.18" y="284.52" width="12.67" transform="translate(-221.06 289.68) rotate(-76.71)" fill="#afafff" stroke="#000"/>
  <polygon points="52.1 309.91 51.54 309.78 43.76 319.87 43.7 319.86 43.53 320.07 47.69 333.14 59.8 335.9 67.74 325.59 63.61 312.61 52.13 309.99 52.1 309.91" fill="#afafff" stroke="#000"/>
  <polygon points="52.1 309.91 52.13 309.99 63.61 312.61 63.58 312.53 52.1 309.91" fill="#afafff" stroke="#000"/>
  <polygon points="51.54 309.78 51.48 309.77 43.7 319.86 43.76 319.87 51.54 309.78" fill="#afafff" stroke="#000"/>
  <polygon points="72.57 302.79 72.02 302.66 64.23 312.75 64.17 312.74 64 312.95 68.16 326.02 80.27 328.78 88.22 318.47 84.08 305.49 72.6 302.88 72.57 302.79" fill="#afafff" stroke="#000"/>
  <polygon points="72.02 302.66 71.95 302.65 64.17 312.74 64.23 312.75 72.02 302.66" fill="#afafff" stroke="#000"/>
  <polygon points="72.57 302.79 72.6 302.88 84.08 305.49 84.06 305.41 72.57 302.79" fill="#afafff" stroke="#000"/>
  <polygon points="6.51 312.58 7.07 312.7 14.85 302.62 14.91 302.63 15.08 302.42 10.93 289.37 1.39 287.19 1.4 311.34 6.48 312.5 6.51 312.58" fill="#3a58a7" stroke="#000"/>
  <polygon points="10.93 289.37 11.55 289.51 19.29 279.47 19.29 279.48 19.5 279.21 15.34 266.14 3.23 263.38 1.39 265.77 1.39 287.18 10.92 289.35 10.93 289.37" fill="#3a58a7" stroke="#000"/>
  <polygon points="10.92 289.35 1.39 287.18 1.39 287.19 10.93 289.37 10.92 289.35" fill="#ffafaf" stroke="#000"/>
  <polygon points="-0.97 296.62 -0.96 296.63 -0.11 296.83 -0.11 296.81 -0.97 296.62" fill="#ffafaf" stroke="#000"/>
  <polygon points="-0.11 296.81 -0.11 296.83 0.99 297.08 0.99 297.06 -0.11 296.81" fill="#ffafaf" stroke="#000"/>
  <polygon points="11.55 289.51 11.34 289.78 15.47 302.76 26.96 305.38 26.98 305.46 27.61 305.6 27.88 305.26 27.49 304.05 35.17 294.09 31.4 282.24 19.29 279.48 11.55 289.51 11.55 289.51" fill="#3a58a7" stroke="#000"/>
  <polygon points="27.88 305.26 35.56 295.3 35.17 294.09 27.49 304.05 27.88 305.26" fill="#ffafaf" stroke="#000"/>
  <rect x="9.08" y="284.49" width="12.67" transform="translate(-265.64 237.8) rotate(-77.47)" fill="#ffafaf" stroke="#000"/>
  <polygon points="10.64 325.56 6.51 312.58 1.4 311.41 1.41 335.57 2.69 335.86 10.64 325.56" fill="#3a58a7" stroke="#000"/>
  <polygon points="6.48 312.5 1.4 311.34 1.4 311.41 6.51 312.58 6.48 312.5" fill="#ffafaf" stroke="#000"/>
  <polygon points="15.47 302.76 14.91 302.63 7.13 312.72 7.07 312.7 6.9 312.92 11.06 325.98 23.17 328.74 31.12 318.44 26.98 305.46 15.5 302.84 15.47 302.76" fill="#3a58a7" stroke="#000"/>
  <polygon points="14.91 302.63 14.85 302.62 7.07 312.7 7.13 312.72 14.91 302.63" fill="#ffafaf" stroke="#000"/>
  <polygon points="15.47 302.76 15.5 302.84 26.98 305.46 26.96 305.38 15.47 302.76" fill="#ffafaf" stroke="#000"/>
  <path d="M72.43,85.15l-14.52-2.9V143.5l19.38-3.87,28.33-17V103.08L84.1,90.2l.22,1.67ZM79.25,125c-1.2-.16-7.54-12.13-11-12.75s1.13-7.83,2.4-10.92l-2.4,10.92L74,109.45,79.25,125h.07v.24Zm.19-.22q0,.18-.12.21l-.56-11.39-3-5-1.79.85-3-8.9,4.79,8,14.39-6.89L89,101.49l1.5.09-.27.13C94,102.39,79.76,122.67,79.44,124.77ZM71,100.38l0-.08s0,0,0,.08a4.8,4.8,0,0,1-.31.94l.26-1.2.06.18c.63-1.79,13,.3,18,1.19Z" fill="#0186ab" stroke="#000"/>
  <polygon points="72.43 85.15 84.32 91.87 84.1 90.2 77.29 86.12 72.43 85.15" fill="#ffafaf" stroke="#000"/>
  <path d="M70.6,101.32a4.8,4.8,0,0,0,.31-.94s0-.06,0-.08l-.06-.18Z" fill="#ff787d" stroke="lime" stroke-width="4"/>
  <path d="M89,101.49l1.23.22h0l.27-.13Z" fill="#ff787d" stroke="lime" stroke-width="4"/>
  <path d="M79.25,125l.08.23V125Z" fill="#ff787d" stroke="lime" stroke-width="4"/>
  <polygon points="74.01 109.45 75.8 108.6 71.01 100.55 74.01 109.45" fill="#ff787d" stroke="lime" stroke-width="4"/>
  <path d="M70.92,100.3l0,.08,18,1.11C83.93,100.6,71.55,98.51,70.92,100.3Z" fill="#ff787d" stroke="lime" stroke-width="4"/>
  <path d="M68.2,112.24l2.4-10.92C69.33,104.41,64.83,111.64,68.2,112.24Z" fill="#ff787d" stroke="lime" stroke-width="4"/>
  <path d="M90.19,101.71,75.8,108.6l3,5L79.32,125q.09,0,.12-.21c.32-2.1,14.55-22.38,10.75-23.06Z" fill="#ff787d" stroke="lime" stroke-width="4"/>
  <path d="M68.2,112.24c3.51.62,9.85,12.59,11,12.75L74,109.45Z" fill="#ff787d" stroke="lime" stroke-width="4"/>
  <polygon points="43 537.06 43.34 537.06 43.34 476.92 19.19 476.92 19.19 537.06 21.96 537.06 32.48 532.04 43 537.06" fill="#d0dd27" stroke="#000"/>
  <path d="M139.11,353.8a31.9,31.9,0,0,1,6.21.63V343.26H132.9v11.17a31.82,31.82,0,0,1,6.21-.63Z" fill="#212bbd" stroke="#000"/>
  <polygon points="164.85 260.89 164.85 196.8 115 196.8 115 260.89 127.47 260.89 152.38 260.89 164.85 260.89" fill="#d0dd27" stroke="#000"/>
  <rect x="101.4" y="200.84" width="12.42" height="33.02" fill="#212beb" stroke="#000"/>
  <polygon points="145.32 326.75 145.32 343.25 151.56 343.25 151.56 260.88 126.66 260.88 126.66 343.25 132.9 343.25 132.9 326.75 145.32 326.75" fill="#ffef00" stroke="#000"/>
  <rect x="132.9" y="326.75" width="12.42" height="16.51" fill="#7d7d7d" stroke="#000"/>
  <path d="M145.72,344.55v5.33h-6.21v0H133.3v-5.33c-16,3.23-28.16,18.72-28.16,37.35a40.47,40.47,0,0,0,7,22.93l12.4-13.69a20.33,20.33,0,0,1-2.18-9.24c0-10.49,7.69-19,17.19-19s17.18,8.5,17.18,19a20.3,20.3,0,0,1-2.91,10.58L166.06,406a40.34,40.34,0,0,0,7.83-24.14C173.89,363.27,161.74,347.78,145.72,344.55Z" fill="lime" stroke="#7fff7b" stroke-width="4"/>
  <path d="M139.11,359.76v-6a31.82,31.82,0,0,0-6.21.63v5.33Z" fill="red" stroke="#000"/>
  <path d="M139.11,353.8v6h6.21v-5.33a31.9,31.9,0,0,0-6.21-.63Z" fill="red" stroke="#000"/>
  <polygon points="43 537.06 21.96 537.06 14.48 540.64 10.03 559.96 26.14 559.69 41.23 559.69 54.94 559.96 50.49 540.64 43 537.06" fill="lime" stroke="#7fff7b" stroke-width="4"/>
  <polygon points="32.48 532.04 21.96 537.06 43 537.06 32.48 532.04" fill="red" stroke="#000"/>
</svg>
