<svg id="Layer_1" data-name="Layer 1" xmlns="http://www.w3.org/2000/svg" viewBox="0 0 185 600">
  <g>
    <path d="M103.12,89.19l3.38-2,9.74-1.94,4.64-2.62V35h55.59c.25-5.12,4.1-9.19,8.85-9.28v-12h-3.58l-70.07,11Z" fill="#ffb000" stroke="#000" stroke-width="0.5"/>
    <path d="M185.35,166.17h-1.79c-17,0-31-1-33.13,10.31h34.93Z" fill="#212beb" stroke="#000"/>
    <path d="M150.14,153c.24,14.3,15.1,13.15,33.42,13.15h1.79V153Z" fill="#212beb" stroke="#000"/>
    <path d="M181.61,73.92H127V153h58.38l0-79.06ZM158.9,133.05c-12.91,0-23.37-11.14-23.37-24.88S146,83.29,158.9,83.29s23.38,11.14,23.38,24.88S171.81,133.05,158.9,133.05Z" fill="#afafaf"/>
    <path d="M158.9,83.29c-12.91,0-23.37,11.14-23.37,24.88S146,133.05,158.9,133.05s23.38-11.14,23.38-24.88S171.81,83.29,158.9,83.29Zm0,43c-9.18,0-16.63-8.09-16.63-18.08s7.45-18.08,16.63-18.08,16.64,8.1,16.64,18.08S168.09,126.25,158.9,126.25Z" fill="#5a5a5a" stroke="#000" stroke-width="3"/>
    <path d="M158.9,90.09c-9.18,0-16.63,8.1-16.63,18.08s7.45,18.08,16.63,18.08,16.64-8.09,16.64-18.08S168.09,90.09,158.9,90.09Zm3.45,20.15c-2.61,0-4.73-2.58-4.73-5.76s2.12-5.75,4.73-5.75,4.73,2.58,4.73,5.75S165,110.24,162.35,110.24Z" fill="#fff200" stroke="#000"/>
    <ellipse cx="162.35" cy="104.48" rx="4.73" ry="5.75" fill="#fff"/>
    <rect x="181.61" y="45.35" width="3.72" height="28.57" fill="#ffafaf" stroke="#000"/>
    <rect x="181.61" y="73.92" width="3.72" fill="#7d7d7d" stroke="#000"/>
    <path d="M181.73,35h-5.26c0,.17,0,.35,0,.53,0,5.36,4,9.72,8.88,9.8V35Z" fill="red" stroke="#000" stroke-width="4"/>
    <path d="M185.32,35V25.73c-4.75.09-8.6,4.16-8.85,9.28h8.85Z" fill="red" stroke="#000" stroke-width="4"/>
    <path d="M184.18,459.59l1.23-57.21V336.61l-10.82-2.47-4.16-13.06.17-.21-12.05-2.75-4.16-13.06,8-10.31.63.14-4.16-13.05,7.95-10.3,12.11,2.76L183,287.37l-.21.26.62.14-4.15-13,6.1-7.92v-25H93.77v-47h91.59V179.33H150.14a16.54,16.54,0,0,1,.29-2.85H77.83V203.1h.55v33h-.55v94.67L127.12,478h54.49l3.82-.11,0-75.47Zm-18-212.12a7.25,7.25,0,0,1,0,14.46c-3.67,0-6.65-3.24-6.65-7.23S162.49,247.47,166.16,247.47Zm-23.89,0c3.67,0,6.65,3.24,6.65,7.23s-3,7.23-6.65,7.23-6.65-3.24-6.65-7.23S138.59,247.47,142.27,247.47Zm-21.47,0c3.67,0,6.65,3.24,6.65,7.23s-3,7.23-6.65,7.23-6.65-3.24-6.65-7.23S117.13,247.47,120.8,247.47ZM93.07,254.7c0-4,3-7.23,6.65-7.23a7.25,7.25,0,0,1,0,14.46C96.05,261.93,93.07,258.69,93.07,254.7Zm11.67,38.81.62.14-4.15-13,8-10.3,12.11,2.76,4.16,13.06-.21.27.62.14-4.16-13,7.95-10.3,12.11,2.76L145.9,279l-.21.27L157.8,282,162,295.09l-8,10.31-.63-.14,4.14,13-8,10.3-12.11-2.76-4.16-13.06.17-.22-.56-.13,4.13,13-7.95,10.3L117,332.9l-4.17-13.06.17-.22-12-2.74-4.16-13.07ZM99.5,354.85l31.67,104.74Zm9.66,0,27.9,104.74Zm9.66,0L143,459.59Zm9.66,0,20.36,104.74Zm9.66,0,16.59,104.74Zm9.66,0,12.82,104.74Zm9.66,0,9,104.74Zm9.66,0,5.28,104.74Zm9.66,0,1.51,104.74Z" fill="#afafaf"/>
    <polygon points="137.74 289.57 137.95 289.31 137.33 289.16 141.48 302.21 141.31 302.43 141.87 302.55 137.74 289.57" fill="#afafaf" stroke="#000"/>
    <polygon points="117.26 296.69 117.47 296.42 116.85 296.28 121.01 309.33 120.84 309.55 121.4 309.67 117.26 296.69" fill="#afafaf" stroke="#000"/>
    <polygon points="175.06 297.67 174.44 297.53 178.6 310.58 178.43 310.79 178.99 310.92 174.85 297.94 175.06 297.67" fill="#afafaf" stroke="#000"/>
    <path d="M185.36,179.33v-2.85H150.43a16.54,16.54,0,0,0-.29,2.85Z" fill="#afafaf" stroke="#000"/>
    <path d="M93.77,241.77h91.6V216.18a8.57,8.57,0,0,1-5.71,2.21c-5,0-9-4.39-9-9.81s4-9.82,9-9.82a8.55,8.55,0,0,1,5.7,2.21V194.8H93.77Zm11.45-4.12h0Zm0-4.21h0Zm0-4.22h0Zm78.26-2.77h0Zm-50.16-22.87h21.74v10H133.32Zm-30,0H125v10H103.28Z" fill="#7d7d7d" stroke="#000"/>
    <path d="M179.66,198.76c-5,0-9,4.4-9,9.82s4,9.81,9,9.81a8.57,8.57,0,0,0,5.71-2.21V201A8.55,8.55,0,0,0,179.66,198.76Z" fill="red" stroke="#000" stroke-width="4"/>
    <rect x="103.28" y="203.58" width="21.74" height="10" fill="#0047ff" stroke="#000"/>
    <rect x="133.32" y="203.58" width="21.74" height="10" fill="#ff0" stroke="#000"/>
    <polygon points="175.06 297.67 174.85 297.94 178.99 310.92 185.39 312.38 185.38 288.23 183.43 287.79 183.43 287.77 182.81 287.63 175.07 297.67 175.06 297.67" fill="#ffafaf" stroke="#000"/>
    <polygon points="178.43 310.79 178.6 310.58 174.44 297.53 162.96 294.91 162.96 294.89 162.33 294.75 154.38 305.06 158.54 318.12 170.59 320.87 178.37 310.77 178.43 310.79" fill="#ffafaf" stroke="#000"/>
    <polygon points="174.44 297.53 175.06 297.67 182.8 287.63 182.81 287.63 183.02 287.37 178.86 274.3 166.75 271.54 158.8 281.85 162.96 294.89 174.44 297.51 174.44 297.53" fill="#ffafaf" stroke="#000"/>
    <rect x="172.6" y="292.65" width="12.68" height="0.01" transform="translate(-146.2 401.95) rotate(-77.14)" fill="#ffafaf" stroke="#000"/>
    <polygon points="174.44 297.53 174.44 297.51 162.96 294.89 162.96 294.91 174.44 297.53" fill="#ffafaf" stroke="#000"/>
    <polygon points="183.43 287.77 185.38 288.22 185.38 266.81 179.28 274.73 183.43 287.77" fill="#ffafaf" stroke="#000"/>
    <polygon points="179.02 311 178.99 310.92 178.43 310.79 170.65 320.88 170.59 320.87 170.42 321.08 174.58 334.14 185.4 336.61 185.39 312.45 179.02 311" fill="#ffafaf" stroke="#000"/>
    <polygon points="179.02 311 185.39 312.45 185.39 312.38 178.99 310.92 179.02 311" fill="#ffafaf" stroke="#000"/>
    <polygon points="178.43 310.79 178.37 310.77 170.59 320.87 170.65 320.88 178.43 310.79" fill="#ffafaf" stroke="#000"/>
    <polygon points="117.47 296.42 117.26 296.69 121.4 309.67 132.88 312.29 132.91 312.37 133.47 312.5 141.25 302.41 141.31 302.43 141.48 302.21 137.33 289.16 125.84 286.54 125.84 286.53 125.22 286.39 117.48 296.43 117.47 296.42" fill="#afffaf" stroke="#000"/>
    <polygon points="112.99 319.62 120.78 309.53 120.84 309.55 121.01 309.33 116.85 296.28 105.37 293.66 105.36 293.65 104.74 293.51 96.79 303.81 100.95 316.88 112.99 319.62" fill="#afffaf" stroke="#000"/>
    <polygon points="116.85 296.28 117.47 296.42 125.21 286.39 125.22 286.39 125.42 286.12 121.27 273.06 109.16 270.3 101.21 280.6 105.36 293.65 116.85 296.27 116.85 296.28" fill="#afffaf" stroke="#000"/>
    <polygon points="117.47 296.42 117.48 296.43 125.22 286.39 125.21 286.39 117.47 296.42" fill="#afffaf" stroke="#000"/>
    <polygon points="116.85 296.28 116.85 296.27 105.36 293.65 105.37 293.66 116.85 296.28" fill="#afffaf" stroke="#000"/>
    <polygon points="137.33 289.16 137.95 289.31 145.69 279.27 145.69 279.27 145.9 279 141.74 265.94 129.63 263.18 121.68 273.48 125.84 286.53 137.32 289.15 137.33 289.16" fill="#afffaf" stroke="#000"/>
    <polygon points="137.33 289.16 137.32 289.15 125.84 286.53 125.84 286.54 137.33 289.16" fill="#afffaf" stroke="#000"/>
    <polygon points="137.95 289.31 137.74 289.57 141.87 302.55 153.36 305.17 153.38 305.26 154.01 305.4 161.96 295.09 157.79 282.03 145.69 279.27 137.95 289.31 137.95 289.31" fill="#afffaf" stroke="#000"/>
    <rect x="135.48" y="284.29" width="12.67" transform="translate(-166.34 361.56) rotate(-77.56)" fill="#afffaf" stroke="#000"/>
    <polygon points="121.4 309.67 120.84 309.55 113.06 319.63 112.99 319.62 112.83 319.84 116.98 332.9 129.09 335.66 137.04 325.36 132.91 312.37 121.42 309.75 121.4 309.67" fill="#afffaf" stroke="#000"/>
    <polygon points="121.4 309.67 121.42 309.75 132.91 312.37 132.88 312.29 121.4 309.67" fill="#afffaf" stroke="#000"/>
    <polygon points="120.84 309.55 120.78 309.53 112.99 319.62 113.06 319.63 120.84 309.55" fill="#afffaf" stroke="#000"/>
    <polygon points="141.87 302.55 141.31 302.43 133.53 312.52 133.47 312.5 133.3 312.72 137.46 325.78 149.57 328.54 157.52 318.24 153.38 305.26 141.9 302.64 141.87 302.55" fill="#afffaf" stroke="#000"/>
    <polygon points="141.31 302.43 141.25 302.41 133.47 312.5 133.53 312.52 141.31 302.43" fill="#afffaf" stroke="#000"/>
    <polygon points="141.87 302.55 141.9 302.64 153.38 305.26 153.36 305.17 141.87 302.55" fill="#afffaf" stroke="#000"/>
    <path d="M103.12,89.19,78.18,104.12v19.59l28.32,17,19.39,3.87V83.29l-9.65,1.93-13.61,7.69Zm2.64,37.56q0,.18-.12.21v.23l-.08-.23a.16.16,0,0,0,.07,0l-.56-11.39-3-5-1.79.85L105.57,127c-1.19-.16-7.54-12.12-11-12.75s1.13-7.83,2.4-10.91l-2.4,10.91,5.81-2.78-3-8.9,4.79,8,14.39-6.9C120.31,104.36,106.08,124.65,105.76,126.75Zm11-23.19-.27.12-1.23-.22Zm-1.5-.1-18-1.1,0-.08a.19.19,0,0,0,0,.07,4.85,4.85,0,0,1-.31,1l.27-1.2.06.17C97.87,100.49,110.25,102.58,115.28,103.46Z" fill="#ffafaf" stroke="#000"/>
    <polygon points="103.12 89.19 102.63 92.91 116.24 85.22 106.5 87.16 103.12 89.19" fill="#ffafaf" stroke="#000"/>
    <path d="M97.25,102.27l-.06-.17-.27,1.2a4.85,4.85,0,0,0,.31-1,.19.19,0,0,1,0-.07h0Z" fill="#ff787d" stroke="lime" stroke-width="4"/>
    <path d="M116.78,103.56l-1.5-.1,1.23.22Z" fill="#ff787d" stroke="lime" stroke-width="4"/>
    <path d="M105.65,127.19V127a.16.16,0,0,1-.07,0Z" fill="#ff787d" stroke="lime" stroke-width="4"/>
    <polygon points="100.33 111.43 100.33 111.43 100.33 111.43 102.12 110.58 97.33 102.53 100.33 111.43" fill="#ff787d" stroke="lime" stroke-width="4"/>
    <path d="M97.25,102.27h0l0,.08,18,1.1C110.25,102.58,97.87,100.49,97.25,102.27Z" fill="#ff787d" stroke="lime" stroke-width="4"/>
    <path d="M94.52,114.21l2.4-10.91C95.65,106.38,91.15,113.61,94.52,114.21Z" fill="#ff787d" stroke="lime" stroke-width="4"/>
    <path d="M102.12,110.58l3,5,.56,11.39q.09,0,.12-.21c.32-2.1,14.55-22.39,10.75-23.07Z" fill="#ff787d" stroke="lime" stroke-width="4"/>
    <path d="M100.33,111.43l-5.81,2.78c3.51.63,9.86,12.59,11,12.75l-5.24-15.53Z" fill="#ff787d" stroke="lime" stroke-width="4"/>
    <ellipse cx="99.72" cy="254.7" rx="6.65" ry="7.23" fill="#00b0ff" stroke="#000"/>
    <ellipse cx="120.8" cy="254.7" rx="6.65" ry="7.23" fill="#00b0ff" stroke="#000"/>
    <ellipse cx="142.27" cy="254.7" rx="6.65" ry="7.23" fill="#00b0ff" stroke="#000"/>
    <ellipse cx="166.16" cy="254.7" rx="6.65" ry="7.23" fill="#00b0ff" stroke="#000"/>
    <polygon points="142.99 538.1 144.54 538.1 155.06 533.08 165.58 538.1 167.13 538.1 167.13 477.96 142.99 477.96 142.99 538.1" fill="#afafaf" stroke="#000"/>
    <path d="M46.06,356.7V345.53H33.64V356.7a30.92,30.92,0,0,1,12.42,0Z" fill="#212bbd" stroke="#000"/>
    <rect x="14.93" y="199.06" width="49.85" height="64.09" fill="#afafaf" stroke="#000"/>
    <rect x="65.96" y="203.1" width="11.88" height="33.02" fill="#212beb" stroke="#000"/>
    <rect x="77.83" y="203.1" width="0.54" height="33.02" fill="#212beb" stroke="#000"/>
    <polygon points="46.06 329.02 46.06 345.53 52.3 345.53 52.3 263.15 27.4 263.15 27.4 345.53 33.64 345.53 33.64 329.02 46.06 329.02" fill="#7d7d7d" stroke="#000"/>
    <rect x="33.64" y="329.02" width="12.42" height="16.51" fill="#7d7d7d" stroke="#000"/>
    <path d="M33.64,362V356.7c-16,3.23-28.16,18.72-28.16,37.36a40.33,40.33,0,0,0,7.83,24.13l12.27-13.55a20.36,20.36,0,0,1-2.92-10.58c0-10.49,7.7-19,17.19-19V362Z" fill="red" stroke="#000"/>
    <path d="M46.06,356.7V362H39.85v13c9.49,0,17.19,8.51,17.19,19a20.52,20.52,0,0,1-2.18,9.24L67.25,417a40.45,40.45,0,0,0,7-22.93C74.23,375.42,62.08,359.93,46.06,356.7Z" fill="red" stroke="#000"/>
    <path d="M39.85,362v-6a31.9,31.9,0,0,0-6.21.63V362Z" fill="red" stroke="#000"/>
    <path d="M39.85,362h6.21V356.7a31.82,31.82,0,0,0-6.21-.63Z" fill="red" stroke="#000"/>
    <polygon points="137.05 541.68 132.6 561 148.71 560.73 163.8 560.73 177.51 561 173.07 541.68 165.58 538.1 144.54 538.1 137.05 541.68" fill="red" stroke="#000"/>
    <polygon points="144.54 538.1 165.58 538.1 155.06 533.08 144.54 538.1" fill="red" stroke="#000"/>
  </g>
  <path d="M186.33,34V44.3h.15c5,0,9-4.39,9-9.81,0-.18,0-.36,0-.53h-9.15Z" fill="red" stroke="#000" stroke-width="4"/>
  <path d="M186.48,24.68h-.15V34h9.15C195.23,28.79,191.3,24.68,186.48,24.68Z" fill="red" stroke="#000" stroke-width="4"/>
  <polygon points="184.03 296.62 184.03 296.63 184.89 296.83 184.89 296.81 184.03 296.62" fill="#ffafaf" stroke="#000"/>
  <polygon points="184.89 296.81 184.89 296.83 185.99 297.08 185.99 297.06 184.89 296.81" fill="#ffafaf" stroke="#000"/>
</svg>
